<?xml version="1.0" encoding="utf-8"?>
<!-- Generator: Adobe Illustrator 24.0.2, SVG Export Plug-In . SVG Version: 6.00 Build 0)  -->
<svg version="1.1" id="Capa_1" xmlns="http://www.w3.org/2000/svg" xmlns:xlink="http://www.w3.org/1999/xlink" x="0px" y="0px"
	 viewBox="0 0 240 255" style="enable-background:new 0 0 240 255;" xml:space="preserve">
<style type="text/css">
	.st0{fill:#DD0000;}
	.st1{fill:#555050;}
	.st2{fill:#FFFFFF;}
</style>
<g>
	<g>
		<path class="st0" d="M117.21,34.46c-51.46,0-93.17,41.71-93.17,93.17s41.71,93.17,93.17,93.17s93.17-41.71,93.17-93.17
			S168.67,34.46,117.21,34.46z M117.21,197.51c-38.59,0-69.88-31.29-69.88-69.88c0-38.59,31.29-69.88,69.88-69.88
			s69.88,31.29,69.88,69.88C187.09,166.22,155.8,197.51,117.21,197.51z"/>
	</g>
	<circle class="st1" cx="117.21" cy="127.63" r="46.59"/>
	<circle cx="117.21" cy="127.63" r="23.29"/>
	<circle class="st2" cx="126.53" cy="118.31" r="9.32"/>
	<g>
		<polygon class="st0" points="215.04,220.8 187.09,220.8 187.09,127.63 187.09,34.46 215.04,34.46 		"/>
	</g>
</g>
</svg>
