<?xml version="1.0" encoding="UTF-8"?>
<svg id="Capa_8" xmlns="http://www.w3.org/2000/svg" version="1.1" viewBox="0 0 467.74 127.95">
  <!-- Generator: Adobe Illustrator 30.3.0, SVG Export Plug-In . SVG Version: 2.1.3 Build 182)  -->
  <defs>
    <style>
      .st0 {
        fill: #fff;
      }

      .st1 {
        fill: #fc2222;
      }
    </style>
  </defs>
  <path class="st1" d="M67.75,121.6c-6.6,0-12.55-1.67-17.85-5.03-5.3-3.35-9.48-7.85-12.53-13.5-3.05-5.65-4.57-12.12-4.57-19.42s1.52-13.82,4.57-19.58c3.05-5.75,7.2-10.25,12.45-13.5,5.25-3.25,11.22-4.88,17.92-4.88,4.9,0,9.32.95,13.28,2.85,3.95,1.9,7.17,4.53,9.67,7.88,2.5,3.35,3.9,7.18,4.2,11.47v31.5c-.3,4.3-1.68,8.13-4.12,11.47-2.45,3.35-5.65,5.98-9.6,7.88-3.95,1.9-8.43,2.85-13.43,2.85ZM72.55,100.75c4.9,0,8.82-1.6,11.77-4.8,2.95-3.2,4.42-7.35,4.42-12.45,0-3.3-.65-6.22-1.95-8.77-1.3-2.55-3.2-4.55-5.7-6-2.5-1.45-5.35-2.17-8.55-2.17s-5.88.73-8.33,2.17c-2.45,1.45-4.4,3.48-5.85,6.08-1.45,2.6-2.17,5.55-2.17,8.85s.72,6.25,2.17,8.85c1.45,2.6,3.4,4.63,5.85,6.08,2.45,1.45,5.22,2.17,8.33,2.17ZM87.85,120.1v-19.65l3.45-17.85-3.45-17.55v-17.85h22.65v72.9h-22.65Z"/>
  <path class="st0" d="M128.5,120.1V13h13.5v107.1h-13.5Z"/>
  <path class="st0" d="M168.7,34.6c-2.5,0-4.55-.83-6.15-2.48-1.6-1.65-2.4-3.72-2.4-6.22s.8-4.42,2.4-6.08c1.6-1.65,3.65-2.47,6.15-2.47s4.55.83,6.15,2.47c1.6,1.65,2.4,3.67,2.4,6.08s-.8,4.58-2.4,6.22c-1.6,1.65-3.65,2.48-6.15,2.48ZM161.8,120.1V48.85h13.65v71.25h-13.65Z"/>
  <path class="st0" d="M227.95,121.6c-7,0-13.33-1.65-18.98-4.95-5.65-3.3-10.1-7.77-13.35-13.42-3.25-5.65-4.88-11.92-4.88-18.83s1.62-13.3,4.88-18.9c3.25-5.6,7.7-10.02,13.35-13.27,5.65-3.25,11.97-4.88,18.98-4.88,5.5,0,10.6,1.03,15.3,3.08,4.7,2.05,8.75,5.02,12.15,8.92l-9,9c-2.2-2.6-4.9-4.58-8.1-5.92-3.2-1.35-6.65-2.03-10.35-2.03-4.5,0-8.5,1.03-12,3.08-3.5,2.05-6.25,4.88-8.25,8.47-2,3.6-3,7.75-3,12.45s1,8.85,3,12.45c2,3.6,4.75,6.45,8.25,8.55,3.5,2.1,7.5,3.15,12,3.15,3.8,0,7.27-.68,10.42-2.03,3.15-1.35,5.87-3.32,8.17-5.92l8.85,9c-3.3,3.8-7.33,6.75-12.07,8.85-4.75,2.1-9.88,3.15-15.38,3.15Z"/>
  <path class="st0" d="M297.55,121.6c-6.6,0-12.53-1.62-17.78-4.88-5.25-3.25-9.4-7.67-12.45-13.28-3.05-5.6-4.58-11.9-4.58-18.9s1.52-13.3,4.58-18.9c3.05-5.6,7.2-10.05,12.45-13.35,5.25-3.3,11.17-4.95,17.78-4.95,5.4,0,10.22,1.12,14.47,3.38,4.25,2.25,7.67,5.35,10.28,9.3,2.6,3.95,4.05,8.53,4.35,13.72v21.45c-.3,5.1-1.72,9.65-4.28,13.65-2.55,4-5.98,7.12-10.27,9.38-4.3,2.25-9.15,3.38-14.55,3.38ZM299.8,108.85c6.7,0,12.1-2.27,16.2-6.83,4.1-4.55,6.15-10.37,6.15-17.47,0-4.8-.95-9.05-2.85-12.75-1.9-3.7-4.53-6.57-7.88-8.62-3.35-2.05-7.28-3.08-11.78-3.08s-8.47,1.05-11.92,3.15c-3.45,2.1-6.15,4.98-8.1,8.62-1.95,3.65-2.92,7.83-2.92,12.53s.98,9.03,2.92,12.67c1.95,3.65,4.67,6.53,8.18,8.62,3.5,2.1,7.5,3.15,12,3.15ZM321.25,120.1v-19.2l2.55-17.4-2.55-17.25v-17.4h13.65v71.25h-13.65Z"/>
  <path class="st0" d="M354.54,120.1V48.85h13.5v71.25h-13.5ZM368.04,79.6l-5.1-2.4c0-9.1,2.1-16.35,6.3-21.75,4.2-5.4,10.25-8.1,18.15-8.1,3.6,0,6.85.63,9.75,1.88,2.9,1.25,5.6,3.33,8.1,6.22l-8.85,9.15c-1.5-1.6-3.15-2.75-4.95-3.45-1.8-.7-3.9-1.05-6.3-1.05-5,0-9.1,1.6-12.3,4.8-3.2,3.2-4.8,8.1-4.8,14.7Z"/>
  <path class="st0" d="M421.59,34.6c-2.5,0-4.55-.83-6.15-2.48-1.6-1.65-2.4-3.72-2.4-6.22s.8-4.42,2.4-6.08c1.6-1.65,3.65-2.47,6.15-2.47s4.55.83,6.15,2.47c1.6,1.65,2.4,3.67,2.4,6.08s-.8,4.58-2.4,6.22c-1.6,1.65-3.65,2.48-6.15,2.48ZM414.69,120.1V48.85h13.65v71.25h-13.65Z"/>
</svg>